<svg width="159" height="133" viewBox="0 0 159 133" fill="none" xmlns="http://www.w3.org/2000/svg">
    <path d="M120.327 0C115.706 0 112.648 2.64923 111.434 5.38462C110.515 7.45769 110.627 8.89808 110.617 10.0962C108.605 11.5175 106.72 13.1223 104.987 14.8912C101.337 18.6577 99.3365 24.0181 99.4383 29.6988C99.4906 32.3158 100.008 34.9524 100.989 37.6088C101.478 38.9442 102.376 41.2569 103.193 43.8335C104.01 46.41 104.661 51.1538 104.661 51.1538C104.661 51.1538 104.35 52.9663 103.828 54C103.259 55.1266 102.592 55.5339 101.828 56.5385C99.9623 58.9921 97.3181 63.0162 97.3181 63.0162L96.8272 63.6892C96.8272 63.6892 94.966 68.6035 96.8272 70C104.606 75.8367 110.248 78.0277 120.411 78C130.573 77.9723 133.828 75.5 142.828 70.5C145.829 68.8328 144.328 64.5 144.328 64.5L143.336 63.0162C143.336 63.0162 140.576 58.9735 138.605 56.5385C138.114 55.9315 137.753 55.6552 137.328 55C136.463 53.666 135.994 51.1538 135.994 51.1538C134.66 47.3077 132.323 39.48 128.894 35.1669C126.936 32.6981 126.294 32.2646 124.978 30.9615C125.448 30.6788 126.03 30.3423 126.367 30.1188C126.785 29.8469 127.009 29.6773 127.098 29.6154C127.834 29.6154 127.886 29.7419 128.651 30.3719C129.414 31.0046 130.975 32.3077 133.137 32.3077C135.036 32.3077 136.422 31.045 137.138 30.1188C137.79 29.2681 138.145 28.6273 138.198 28.5223C138.433 28.4065 138.942 28.2369 139.584 27.7658C140.227 27.2946 141.062 26.2392 141.216 25.0735C141.37 23.9077 141.012 22.8846 140.563 21.875C139.9 20.3808 138.665 18.6685 136.728 16.5738C134.79 14.4819 132.25 12.2635 129.14 10.9362C128.905 10.8312 129.098 10.99 128.975 10.8554C128.855 10.7154 128.487 10.15 127.753 9.59C126.795 8.86577 124.714 8.78231 122.938 8.58038V0H120.327ZM117.716 5.97423V13.4615H120.327C123.886 13.4615 124.672 13.9031 124.651 13.8815C124.641 13.8708 124.662 13.9246 125.061 14.3877C125.65 15.0692 126.373 15.6143 127.181 15.9869C129.27 16.8808 131.364 18.6254 132.975 20.3592C134.485 21.98 135.495 23.59 135.668 23.8942C135.25 24.1042 134.811 24.2523 134.281 24.9038C133.566 25.7977 133.312 26.4196 133.056 26.7562C132.975 26.8612 132.986 26.8908 132.975 26.9231C132.751 26.8908 132.597 26.7454 131.913 26.1665C131.056 25.4504 129.354 24.2308 127.1 24.2308C125.385 24.2308 124.416 25.0385 123.591 25.5769C122.766 26.1154 122.103 26.5031 121.878 26.5865L121.795 26.67H121.716C121.236 26.88 120.411 26.9231 120.411 26.9231L117.716 26.8396V31.1312L118.614 31.885C118.614 31.885 121.714 34.7065 124.816 38.6158C127.915 42.5331 130.328 48 130.772 51.1538L131.55 53.8269L133.056 56.5385H108.17C109.921 53 109.066 44.9696 108.17 42.1508C107.274 39.3319 106.212 36.8738 105.804 35.7565C105.085 33.7639 104.699 31.6603 104.661 29.5346C104.58 25.2108 106.078 21.3419 108.658 18.6819C110.363 16.9238 112.901 14.7242 114.288 13.8842L115.593 13.1277V11.6119C115.593 10.6158 115.593 8.94115 116.168 7.65962C116.47 6.92357 117.02 6.32497 117.716 5.97423ZM108.17 56.5385H133.056C133.056 56.5385 142.828 65 138.328 68C132.05 72.1853 128.006 72.9707 120.327 73C112.59 73.0295 107.861 72.0838 101.328 68C98.3281 66.1246 108.17 56.5385 108.17 56.5385Z" fill="white"/>
    <path d="M37.3272 0C32.7056 0 29.6479 2.64923 28.4338 5.38462C27.5147 7.45769 27.6269 8.89808 27.6165 10.0962C25.6046 11.5175 23.7205 13.1223 21.9869 14.8912C18.3366 18.6577 16.3365 24.0181 16.4383 29.6988C16.4906 32.3158 17.0076 34.9524 17.9893 37.6088C18.4776 38.9442 19.3758 41.2569 20.1931 43.8335C21.0104 46.41 21.6606 51.1538 21.6606 51.1538C21.6606 51.1538 21.3501 52.9663 20.8281 54C20.2593 55.1266 19.592 55.5339 18.8281 56.5385C16.9623 58.9921 14.3181 63.0162 14.3181 63.0162L13.8272 63.6892C13.8272 63.6892 11.966 68.6035 13.8272 70C21.6065 75.8367 27.2483 78.0277 37.4108 78C47.5733 77.9723 50.8281 75.5 59.8281 70.5C62.829 68.8328 61.3281 64.5 61.3281 64.5L60.3363 63.0162C60.3363 63.0162 57.5758 58.9735 55.605 56.5385C55.1138 55.9315 54.7528 55.6552 54.3281 55C53.4633 53.666 52.9939 51.1538 52.9939 51.1538C51.6597 47.3077 49.3227 39.48 45.8943 35.1669C43.9359 32.6981 43.2936 32.2646 41.9776 30.9615C42.4476 30.6788 43.0299 30.3423 43.3667 30.1188C43.7845 29.8469 44.0091 29.6773 44.0978 29.6154C44.8342 29.6154 44.8864 29.7419 45.6514 30.3719C46.4139 31.0046 47.9753 32.3077 50.1373 32.3077C52.0356 32.3077 53.4221 31.045 54.1376 30.1188C54.7903 29.2681 55.1454 28.6273 55.1977 28.5223C55.4327 28.4065 55.9418 28.2369 56.5842 27.7658C57.2265 27.2946 58.0621 26.2392 58.2161 25.0735C58.3702 23.9077 58.0124 22.8846 57.5633 21.875C56.9001 20.3808 55.6651 18.6685 53.7276 16.5738C51.7902 14.4819 49.2496 12.2635 46.1397 10.9362C45.9047 10.8312 46.0979 10.99 45.9752 10.8554C45.8551 10.7154 45.487 10.15 44.7532 9.59C43.795 8.86577 41.7139 8.78231 39.9383 8.58038V0H37.3272ZM34.7161 5.97423V13.4615H37.3272C40.8862 13.4615 41.6721 13.9031 41.6512 13.8815C41.6408 13.8708 41.6617 13.9246 42.0612 14.3877C42.6504 15.0692 43.373 15.6143 44.1814 15.9869C46.2703 16.8808 48.3644 18.6254 49.9754 20.3592C51.4847 21.98 52.4952 23.59 52.6675 23.8942C52.2497 24.1042 51.8111 24.2523 51.281 24.9038C50.5656 25.7977 50.3123 26.4196 50.0564 26.7562C49.9754 26.8612 49.9859 26.8908 49.9754 26.9231C49.7509 26.8908 49.5968 26.7454 48.9127 26.1665C48.0563 25.4504 46.3538 24.2308 44.1005 24.2308C42.385 24.2308 41.4162 25.0385 40.5911 25.5769C39.766 26.1154 39.1028 26.5031 38.8782 26.5865L38.7947 26.67H38.7163C38.2359 26.88 37.4108 26.9231 37.4108 26.9231L34.7161 26.8396V31.1312L35.6143 31.885C35.6143 31.885 38.7137 34.7065 41.8157 38.6158C44.9151 42.5331 47.3281 48 47.7717 51.1538L48.5499 53.8269L50.0564 56.5385H25.1699C26.9208 53 26.0655 44.9696 25.1699 42.1508C24.2743 39.3319 23.2116 36.8738 22.8042 35.7565C22.0854 33.7639 21.6987 31.6603 21.6606 29.5346C21.5796 25.2108 23.0784 21.3419 25.6582 18.6819C27.3632 16.9238 29.9012 14.7242 31.2877 13.8842L32.5933 13.1277V11.6119C32.5933 10.6158 32.5933 8.94115 33.1677 7.65962C33.4697 6.92357 34.0197 6.32497 34.7161 5.97423ZM25.1699 56.5385H50.0564C50.0564 56.5385 59.8281 65 55.3281 68C49.0502 72.1853 45.0061 72.9707 37.3272 73C29.5901 73.0295 24.8608 72.0838 18.3281 68C15.3281 66.1246 25.1699 56.5385 25.1699 56.5385Z" fill="white"/>
    <line x1="2.80105" y1="71.6074" x2="79.4476" y2="129.412" stroke="white" stroke-width="4" stroke-linecap="round"/>
    <line x1="60.8045" y1="50.6331" x2="121.854" y2="97.5575" stroke="white" stroke-width="4" stroke-linecap="round"/>
    <line x1="2" y1="-2" x2="98" y2="-2" transform="matrix(0.798922 -0.601435 -0.601435 -0.798922 77 129.287)" stroke="white" stroke-width="4" stroke-linecap="round"/>
    <path d="M36.8008 96.5385L97.5188 50.8294" stroke="white" stroke-width="4" stroke-linecap="round"/>
    <path d="M79 65L98.9186 50.75H59.0814L79 65Z" fill="white"/>
    <path d="M80.5 129L122.502 96H38.4978L80.5 129Z" fill="white"/>
    <path d="M77.5 65L119.502 98H35.4978L77.5 65Z" fill="white"/>
    <line x1="61" y1="50" x2="97" y2="50" stroke="white" stroke-width="4" stroke-linecap="round"/>
</svg>
