<svg version="1.1" xmlns="http://www.w3.org/2000/svg" xmlns:xlink="http://www.w3.org/1999/xlink" x="0px" y="0px"
     viewBox="0 0 256 256" enable-background="new 0 0 256 256" xml:space="preserve">
    <g><g><g><path fill="currentColor" d="M79.3,31.4l-48,21.4v42.4c0,47.1,0,46.7,3.5,60.5C43.2,188.1,66,217,97,234.2c8.6,4.8,23.9,10.8,29.8,11.7c3.5,0.6,16.3-3.7,27-9.1c34.7-17.3,60.3-49.2,68.3-85.2c2.5-11.4,2.6-13,2.6-57.4V52.7l-48-21.4C150.4,19.6,128.4,10,128,10C127.6,10,105.7,19.6,79.3,31.4z M165.4,49.6c20.4,9.1,37.4,16.7,37.8,17c0.6,0.5,0.7,6.7,0.5,35.1c-0.2,29.7-0.3,35.3-1.1,39.4c-1.9,10.7-4.2,17.8-8.6,27c-12,24.8-33.9,44.6-60.2,54.2l-5.7,2.1l-5.7-2.1c-34.3-12.6-61.2-42.9-68-76.7c-1.8-8.6-2.1-15.9-2.1-48c0-28.7,0.1-30.7,0.9-31.2c1.2-0.8,74-33.2,74.6-33.2C128.1,33.2,145,40.6,165.4,49.6z"/><path
        fill="currentColor"
        d="M139.3,113l-30.4,30.4l-11.4-11.4l-11.4-11.4l-7.4,7.5l-7.5,7.4l18.9,18.9l18.9,18.9l38-38l38-38l-7.4-7.4c-4.1-4.1-7.6-7.5-7.7-7.5C169.7,82.6,156,96.3,139.3,113z" /></g></g></g>
</svg>
