<svg width="72" height="72" viewBox="0 0 72 72" fill="none" xmlns="http://www.w3.org/2000/svg">
<path d="M32.4998 46.949L32.5 47.0532H32.494C31.4976 47.0514 29.0253 46.1638 26.3843 44.5617C24.1301 43.1943 21.7529 41.3064 20.0656 39.0046C17.4248 35.4022 16.7362 30.0575 19 27.9825C21.2638 25.9075 26.0563 27.2194 28.348 30.9731C30.3012 34.1726 31.3517 37.66 31.9069 40.6822C32.3823 43.2697 32.4947 45.5162 32.4998 46.949Z" fill="#34364C"/>
<path d="M53.9343 39.0046C52.247 41.3064 49.8698 43.1943 47.6156 44.5617C44.9746 46.1638 42.5023 47.0514 41.5059 47.0532H41.5L41.5002 46.949C41.5053 45.5162 41.6176 43.2697 42.093 40.6822C42.6482 37.66 43.6987 34.1726 45.6519 30.9731C47.9436 27.2194 52.7362 25.9075 55 27.9825C57.2638 30.0575 56.5752 35.4022 53.9343 39.0046Z" fill="#34364C"/>
<path fill-rule="evenodd" clip-rule="evenodd" d="M34 2C31.0354 2 28.561 4.15343 28.0832 7H28C24.6863 7 22 9.68629 22 13V13.0856C17.8263 12.6972 13.4565 13.7259 9.65885 16.8907C0.211597 24.7634 1.35689 40.7571 11.9986 49.3247C13.4928 50.5277 14.7133 51.5463 15.6931 52.4896L15.2163 52.5541C12.2405 52.9566 10.0205 55.4971 10.0205 58.5V66C10.0205 69.3137 12.7068 72 16.0205 72H57.9794C61.2931 72 63.9794 69.3137 63.9794 66V58.5C63.9794 55.4971 61.7594 52.9566 58.7836 52.5541L58.3068 52.4897C59.2867 51.5463 60.5071 50.5277 62.0014 49.3247C72.643 40.7571 73.7883 24.7634 64.3411 16.8907C60.5434 13.7259 56.1736 12.6972 52 13.0856V13C52 9.68629 49.3137 7 46 7H45.9167C45.4389 4.15343 42.9645 2 40 2H34ZM51.9987 19.1228C54.9724 18.7089 57.9318 19.3598 60.5 21.5C66.5 26.5 66.5 38 58.2387 44.6512C55.4822 46.8704 52.8951 49.0426 51.2764 51.5388C50.7341 52.3751 50.3005 53.2477 50.0056 54.1706C49.6863 55.1699 49.5297 56.2282 49.5738 57.3632L57.9794 58.5V66H16.0205V58.5L24.4261 57.3632C24.4702 56.2282 24.3136 55.1699 23.9943 54.1706C23.6994 53.2477 23.2658 52.375 22.7236 51.5388C21.1048 49.0426 18.5177 46.8704 15.7612 44.6512C7.49996 38 7.49996 26.5 13.5 21.5C16.0681 19.3599 19.0275 18.7089 22.0012 19.1228C23.8826 19.3847 25.7698 20.0729 27.5672 21.0798C27.712 21.1609 27.8563 21.2442 28 21.3294C29.6581 22.3134 31.2319 23.5658 32.6445 25C32.7786 25.1362 32.9113 25.2741 33.0425 25.4135C33.1589 25.5372 33.2718 25.6638 33.3814 25.793L33.6562 19H28V13H33.8437L34 8H40L40.1562 13H46V19H40.3437L40.6185 25.793C40.7281 25.6638 40.841 25.5372 40.9574 25.4135C41.0886 25.2741 41.2213 25.1362 41.3554 25C42.768 23.5658 44.3418 22.3134 46 21.3294C46.1436 21.2442 46.2879 21.1609 46.4327 21.0798C48.2301 20.0729 50.1173 19.3847 51.9987 19.1228Z" fill="#34364C"/>
</svg>
